<?xml version="1.0" encoding="utf-8"?>
<!-- Generator: Adobe Illustrator 19.0.0, SVG Export Plug-In . SVG Version: 6.00 Build 0)  -->
<svg version="1.0" id="Layer_1" xmlns="http://www.w3.org/2000/svg" xmlns:xlink="http://www.w3.org/1999/xlink" x="0px" y="0px"
	 viewBox="0 0 1280 800" enable-background="new 0 0 1280 800" xml:space="preserve">
<path id="XMLID_27_" d="M378.8,454.4l-4.1,1.8c-3.8-20.9-16.3-44.4-32-44.4c-15.9,0-25.8,29.1-26,57c-1.5-0.9-3.2-1.6-4.9-2
	c0.3-0.7,0.4-1.4,0.4-2.2c0-2.8-1.8-5.2-4.2-6l4.1-7.7h-11.7l2.6,8.5c-1.5,1.1-2.6,3-2.6,5.1c0,0.9,0.2,1.7,0.5,2.5
	c-2.8,0.9-5.3,2.4-7.3,4.3c-2-6.6-6-12.2-11.3-16.1c1.2-1.6,2-3.6,2-5.7c0-4.4-3.1-8.2-7.6-9.6l1-8.4l-5.9,3.3l-3.8-6.4l-4,6.5
	l-6.3,1l7.3,7c-2.4,1.9-4,3.6-4,6.6v0c-4,0.5-7.7,1.7-11.1,3.7c-2.2-8.6-6.1-15.5-11.1-19.2c0.6-1,0.9-2,0.9-3.2
	c0-3.2-0.4-4.9-3.7-5.7l1.8-6.5l-5.7,0.1l-7.8-3.5l5.3,9.1c-3.1,0.9-5.3,3.5-5.3,6.6c0,0.4,0,0.9,0.1,1.3c-4.8,2.3-7.9,3.2-10.8,9.9
	c-4.6-13.6-17.5-33.2-39.7-13.8v14c0,0,26.8-7.6,24.1,22.6c0,0-28.3,45,12.1,67.5l-9.7,24.8c-16.6-3.5-27.3-6.3-27.7-6.4l-2.5,9.7
	c4.5,1.2,93.9,23.7,159.7,23.7c13.8,0,26.7-1,37.4-3.4c37-8.3,43.4-22.2,42.2-32.5c-1.3-11.5-13.3-20.7-22.5-20.7
	c-4.3,0-8,1.6-10.5,4.8c-6,7.3-3.6,20.4-3.3,21.8l9.8-2c-0.6-3-1.2-10.7,1.2-13.5c0.4-0.5,1.1-1.1,2.8-1.1c3.8,0,11.8,5.3,12.5,11.8
	c0.9,8.5-12,16.6-34.5,21.6c-1.1,0.3-2.3,0.5-3.4,0.7l-15.3-41.4c24-8.2,32.4-17.8,32.4-17.8l13.7-43.8c0,0,12.4-26.8,28.4-6.2
	l9.5-16C430.4,446.6,408.2,416.5,378.8,454.4z M275.3,570.2c-21.4-2.7-42.4-6.4-59.7-9.9l4.5-23.5c8.6,3,19.3,4.8,32.7,5.1
	c10.6,0.3,20.5,0.1,29.5-0.4L275.3,570.2z M290.4,572l2-31.1c16.1-1.3,29.4-3.6,40.4-6.4l9.9,39.5
	C326.9,574.8,308.8,573.8,290.4,572z"/>
<path id="XMLID_2_" d="M362.1,407.2c0,10.8-5.7,19.5-16.5,19.5c-10.8,0-19.5-8.7-19.5-19.5c0-10.8,8.7-19.5,19.5-19.5
	c5.8,0,10.1,2.5,12.9,6.5c1,1.4,0.8,3.1,1.4,4.8C360.6,401.5,362.1,404.3,362.1,407.2z"/>
<polygon id="XMLID_4_" points="359,400 365.7,406.2 359,409.4 "/>
<path id="XMLID_5_" d="M355.7,392.8c0,0-13.7-15-21.6-11.6s-17.5,20.8-24.3,24c-6.9,3.2-16.1-2.7-16.1-2.7s6.8,12,14.2,12.7
	s6.8-1.4,13.3-1.7c6.5-0.3,12.3,10.5,12.3,10.5L355.7,392.8z"/>
<circle id="XMLID_3_" cx="295.8" cy="402.7" r="5.7"/>
<ellipse id="XMLID_6_" cx="352" cy="388.9" rx="5.7" ry="5.2"/>
<ellipse id="XMLID_8_" cx="327" cy="416.9" rx="5.7" ry="5.2"/>
<path id="XMLID_7_" d="M361,409.4c0,0,12,7.9,9.7,14.6c-2.3,6.7-12.7,8.1-12.7,8.1l-12.7-9.8L361,409.4z"/>
<path id="XMLID_9_" d="M359.4,434.6c12.1-4.2,23.9-12.1,23.9-12.1l1.8,9.2c0,0-15.1,11.1-11.4,21.9
	C373.7,453.5,347.3,438.8,359.4,434.6z"/>
<path id="XMLID_10_" d="M387.1,426c2.3,4.2,1.1,7.9-1.4,9.3c-2.4,1.3-8.8,1.5-11.1-2.7c-2.3-4.2,1.5-10.5,3.9-11.8
	S384.8,421.8,387.1,426z"/>
<ellipse id="XMLID_11_" cx="370.2" cy="443.5" rx="7.8" ry="7.4"/>
<path id="XMLID_40_" d="M690.2,497.6L685,509c0,0-2.7,8.9-6,7s-6.8-12.3-6.8-12.3l6-2.2l0.8-5L668.3,481c0,0-17.2,4.9-22.3,4.5
	s-10.4-5.4-10.4-5.4s-15.3,9.2-23.2,8.5c-7.9-0.6-33.7-8.4-47.7-6.6s-20.7,15.5-30.1,18.6c-9.4,3-24.1,1.2-29.7,5
	c-5.5,3.8-16.5,29.3-16.5,29.3c-4.1,2.4-13,5.6-13,3.1c0-2.5,3.4-10.6,3.4-10.6l4.9-1.3c0,0,9.4-30.1,13-33.5
	c3.6-3.4,18.6-7.5,18.6-7.5l3-30.5c0,0,0-0.1,0-0.1l0,0.1c-0.5,0.6-7.1,1.1-8.2-6.5c-0.6-4.3,1.9-8.6,9.2-5.9
	c7.3,2.8,6.3,5.2,6.3,5.2c14.3-6,53.1-0.6,53.1-0.6s34.2-6,36.2-17c2-11-0.5-27.6-0.5-27.6l-1.5-7.4c0,0-8.8-3.4-6.2-6.7
	c2.5-3.3,10.1-1.1,10.1-1.1s0.3-0.6,0.8-1.6l-3.4-7l-36-10l-13.8-35.9l16-29.3l3.8,0.4l0.7,3.5l-7.5,13.8l5.6-1.3l3.3,2.3l-3.3,3.9
	l-10,3.2l-1.7,3.1l9.6,24.9l4.1-12.4l16.8-9.1l2.8,0.9l-1.3,3.8l-14.6,8.8l-0.5,3.4l6.4-1.6l2.3,2.2l-1.6,3.5l-8,2l-0.8,5.5
	l18.3,5.2l0.9-9.3l4.1-3.3l2.5,4.4l0.9,10.6l7,2l3.7,4.7c0.4-0.2,0.8-0.5,1.2-0.6c5.6-2.6,30.4-1.8,32.8,1.9
	c2.4,3.7-1.2,9.8-5.8,12.6c-4.7,2.9-10.9,0.8-11.4,6.1c-0.6,5.3,17.5,33.7,18.3,46.1c0.8,12.3-5,20-5,20s19.1,0.4,21.6,2
	C678,467.6,690.2,497.6,690.2,497.6z"/>
<path id="XMLID_14_" d="M914.6,434.1l-1.5,10.7c0,0-0.1,8-3.3,7.2c-3.2-0.8-8.6-8.5-8.6-8.5l4.4-3.3l-0.5-4.3l-12.6-10.3
	c0,0-13,8.1-17.3,9c-4.3,0.9-9.9-2-9.9-2s-10.4,11.2-17.1,12.6c-6.7,1.4-29.8,1.1-40.9,6c-11.2,4.9-13.4,17.8-20.4,22.5
	c-7,4.7-19.6,6.7-23.3,11.2c-3.7,4.5-6.6,28.1-6.6,28.1c-2.8,3-9.4,7.7-10,5.6c-0.6-2.1,0.2-9.6,0.2-9.6l3.7-2.3
	c0,0,0.6-27.1,2.7-30.7c2.1-3.7,13.5-10.7,13.5-10.7l-4.8-25.9c0,0,0-0.1,0-0.1l0,0.1c-0.2,0.6-5.6,2.6-8.3-3.4
	c-1.5-3.4-0.5-7.6,6.2-7c6.7,0.6,6.4,2.7,6.4,2.7c10.4-8.4,43.7-13.2,43.7-13.2s26.8-13.1,25.8-22.7c-1-9.5-7-22.7-7-22.7l-3-5.7
	c0,0-8.1-0.7-6.8-4.1s8.1-3.3,8.1-3.3s0.1-0.6,0.3-1.5l-4.5-5l-32.1,0.4l-17-23.3l5.2-26l3.2-0.6l1.4,2.7l-3.5,18.9l-0.6,2.9
	l10.9,15.2l2-4.6l7.9-3.8l2.5,1.2l-0.5,3.3l-6.1,4.5l0.7,3.7l16.3-0.1l0.5-3.9l2.6-4.7l4.2,3l0.3,5.5l6.3,0l4.2,3
	c0.2-0.3,0.5-0.6,0.8-0.8c4-3.5,24.6-8.8,27.5-6.3c2.9,2.5,1.4,8.3-1.8,11.8c-3.2,3.5-8.8,3.3-8,7.8c0.8,4.5,22.5,23.6,26.1,33.6
	c3.6,10,0.6,17.7,0.6,17.7s15.8-4.3,18.3-3.5C897.4,412.3,914.6,434.1,914.6,434.1z"/>
<path id="XMLID_15_" d="M1106.7,414.3l-3.7,8.9c0,0-1.8,6.9-4.4,5.5c-2.6-1.4-5.5-9.3-5.5-9.3l4.5-1.8l0.5-3.8l-8.6-11.6
	c0,0-13,4.1-16.9,4c-3.9-0.2-8.1-3.9-8.1-3.9s-11.4,7.4-17.5,7.1c-6.1-0.3-25.9-5.6-36.6-3.9c-10.7,1.8-15.5,12.4-22.5,14.9
	c-7.1,2.5-18.4,1.5-22.6,4.6c-4.2,3.1-11.9,22.8-11.9,22.8c-3.1,1.9-9.8,4.6-9.9,2.7c-0.1-1.9,2.3-8.2,2.3-8.2l3.7-1.1
	c0,0,6.5-23.2,9.1-25.9c2.7-2.7,14-6.2,14-6.2l1.5-23.4c0,0,0-0.1,0-0.1l0,0.1c-0.4,0.5-5.4,1-6.4-4.8c-0.6-3.3,1.2-6.7,6.9-4.7
	c5.7,2,4.9,3.8,4.9,3.8c10.8-5,40.6-1.8,40.6-1.8s26-5.4,27.3-13.9c1.2-8.5-1-21.1-1-21.1l-1.4-5.6c0,0-6.8-2.4-4.9-5
	c1.9-2.6,7.7-1.1,7.7-1.1s0.2-0.5,0.6-1.2l-2.8-5.3l-23.8-7.8l-3.1-12.9l2.9-8.6l12.7-6.4l2.1,0.6l-0.9,2.9l-10,6.1l-1.3,7.6
	l4.8-3.4l1.9,1.6l-0.1,1.7l-4,4.7l0.5,2.2l12.1,3.5l2.5-8.2l3-1.6l1.1,4.3l-1.1,8.1l5.4,1.4l3,3.5c0.3-0.2,0.6-0.4,0.9-0.5
	c4.2-2.2,23.2-2.2,25.1,0.6c1.9,2.8-0.6,7.5-4.2,9.8c-3.5,2.3-8.3,0.9-8.6,5c-0.3,4.1,14.2,25.4,15.1,34.8
	c0.9,9.4-3.4,15.4-3.4,15.4s14.6-0.2,16.5,1C1096.7,391.7,1106.7,414.3,1106.7,414.3z"/>
<path id="XMLID_29_" d="M575.2,438.5l0-0.1C575.3,438.4,575.3,438.5,575.2,438.5z"/>
<polygon id="XMLID_13_" points="782.2,336.2 788.1,331 798,329 798,326 787.6,323.9 778.5,330.5 "/>
<g id="XMLID_17_">
	<path id="XMLID_20_" d="M487.3,432c-59.3,0-105.7-2-106.5-2.1l0.3-6c1.4,0.1,141.3,6.2,246.5-3c34.9-3,60.1-2.4,82.4-1.9
		c45.2,1.1,75.1,1.9,142.7-30.6c52.7-25.4,107-32.6,143.3-34.3c39.3-1.8,66.6,2.5,66.9,2.5l-0.9,5.9c-0.3,0-27.1-4.2-65.8-2.4
		c-35.7,1.6-89.1,8.8-140.8,33.7c-68.9,33.1-99.3,32.4-145.4,31.2c-22.1-0.6-47.1-1.2-81.7,1.8C583,430.9,531.6,432,487.3,432z"/>
</g>
<g id="XMLID_18_">
	<path id="XMLID_19_" d="M371,446.3l-1.7-5.8c4.1-1.2,100.5-29.6,151.2-31.9c31-1.4,49.4,4.1,68.9,9.9c13.2,3.9,26.8,8,45.6,10.5
		c32.2,4.3,78.2-12.6,111.8-25c15.6-5.8,29.1-10.7,38.7-12.8c5.3-1.1,9.5-2.1,13.2-3c17-4.1,20.2-4.8,55.2,0
		c100.2-25.6,215.7-29.2,216.8-29.2l0.2,6c-1.2,0-116.4,3.6-216.1,29.2l-0.6,0.1l-0.6-0.1c-34.5-4.7-37-4.1-53.6-0.1
		c-3.7,0.9-7.9,1.9-13.3,3c-9.1,2-22.4,6.9-37.9,12.5c-36.1,13.3-81,29.9-114.7,25.3c-19.3-2.6-33.1-6.7-46.5-10.7
		c-19.8-5.9-36.9-11-66.9-9.6C470.9,417,372,446,371,446.3z"/>
</g>
</svg>
