<?xml version="1.0" standalone="no"?>
<!DOCTYPE svg PUBLIC "-//W3C//DTD SVG 20010904//EN"
 "http://www.w3.org/TR/2001/REC-SVG-20010904/DTD/svg10.dtd">
<svg version="1.0" xmlns="http://www.w3.org/2000/svg"
 width="1280.000000pt" height="1280.000000pt" viewBox="0 0 1280.000000 1280.000000"
 preserveAspectRatio="xMidYMid meet">
<g transform="translate(0.000000,1280.000000) scale(0.100000,-0.100000)"
fill="#000000" stroke="none">
<path d="M6184 11878 c-732 -1067 -789 -1142 -1653 -2157 -128 -150 -231 -274
-229 -276 4 -4 288 -34 426 -44 62 -5 116 -12 119 -15 21 -20 -547 -710 -1589
-1931 l-128 -150 33 -7 c32 -6 254 -29 506 -51 74 -7 136 -17 138 -22 3 -11
-248 -330 -462 -585 -225 -270 -920 -1090 -1279 -1510 -312 -365 -343 -406
-323 -412 23 -7 363 -41 582 -58 192 -15 532 -30 678 -30 70 0 127 -3 127 -7
0 -38 -705 -886 -1899 -2283 -195 -228 -412 -482 -482 -565 -71 -82 -126 -151
-124 -153 2 -3 80 -13 172 -23 797 -87 1534 -104 1858 -44 325 61 915 268
1649 579 98 42 185 76 192 76 7 0 75 -28 151 -61 338 -150 596 -251 943 -369
l255 -86 6 -250 c3 -137 7 -373 8 -525 l1 -276 143 -6 c182 -9 611 -9 793 0
l141 6 8 521 c4 287 10 524 13 528 4 4 79 30 167 59 300 97 683 245 1028 398
76 33 144 61 151 61 7 0 104 -39 217 -86 749 -315 1301 -508 1624 -569 324
-60 1061 -43 1858 44 92 10 170 20 172 23 4 4 -20 32 -606 718 -1169 1367
-1899 2245 -1899 2283 0 4 57 7 128 7 145 0 485 15 677 30 218 17 559 51 582
58 21 6 -8 42 -293 377 -1200 1407 -1779 2103 -1771 2130 2 5 64 15 138 22
252 22 474 45 506 51 l33 7 -128 150 c-1039 1218 -1609 1911 -1589 1931 3 3
57 10 119 15 138 10 422 40 426 44 2 2 -101 126 -229 276 -871 1024 -917 1084
-1708 2237 -84 122 -156 222 -161 222 -5 0 -102 -136 -216 -302z"/>
</g>
</svg>
