<?xml version="1.0" standalone="no"?>
<!DOCTYPE svg PUBLIC "-//W3C//DTD SVG 20010904//EN"
 "http://www.w3.org/TR/2001/REC-SVG-20010904/DTD/svg10.dtd">
<svg version="1.0" xmlns="http://www.w3.org/2000/svg"
 width="1280.000000pt" height="1280.000000pt" viewBox="0 0 1280.000000 1280.000000"
 preserveAspectRatio="xMidYMid meet">
<metadata>
Created by potrace 1.15, written by Peter Selinger 2001-2017
</metadata>
<g transform="translate(0.000000,1280.000000) scale(0.100000,-0.100000)"
fill="#000000" stroke="none">
<path d="M72 12780 c-18 -11 -41 -34 -52 -52 -20 -33 -20 -64 -20 -6328 0
-6264 0 -6295 20 -6328 11 -18 34 -41 52 -52 33 -20 64 -20 6328 -20 6264 0
6295 0 6328 20 18 11 41 34 52 52 20 33 20 64 20 6328 0 6264 0 6295 -20 6328
-11 18 -34 41 -52 52 -33 20 -64 20 -6328 20 -6264 0 -6295 0 -6328 -20z
m12518 -6380 l0 -6190 -6190 0 -6190 0 0 6190 0 6190 6190 0 6190 0 0 -6190z"/>
<path d="M6565 10822 c-136 -83 -360 -458 -774 -1292 -103 -206 -272 -530
-377 -720 -663 -1198 -948 -1833 -895 -1993 29 -85 188 -127 588 -155 l102 -7
-85 -160 c-394 -740 -605 -1230 -608 -1413 -1 -60 1 -65 31 -92 18 -17 62 -38
100 -50 78 -23 246 -50 315 -50 86 0 89 13 -57 -278 -272 -546 -387 -837 -389
-991 -1 -60 0 -64 34 -93 115 -96 511 -128 1323 -107 273 6 499 10 502 7 3 -2
-34 -333 -81 -734 -80 -681 -85 -734 -75 -809 23 -169 128 -318 276 -391 68
-33 88 -38 166 -42 73 -4 102 0 160 18 119 39 227 134 287 255 27 55 52 161
52 222 0 28 -34 338 -75 689 -89 766 -89 763 -84 768 2 3 227 7 499 9 272 3
558 10 635 16 363 29 562 76 609 143 64 91 -66 439 -393 1051 -77 145 -141
268 -141 271 0 3 18 6 40 6 49 0 222 26 308 45 87 21 159 53 182 83 83 104
-97 537 -584 1412 l-125 225 37 3 c377 26 604 74 671 141 45 45 18 187 -81
431 -70 171 -300 623 -505 990 -93 168 -290 544 -436 835 -147 292 -312 616
-368 720 -367 689 -620 1055 -728 1055 -14 0 -40 -8 -56 -18z"/>
<path d="M2454 7580 c-39 -15 -131 -130 -213 -267 -45 -76 -157 -286 -248
-468 -91 -181 -225 -438 -298 -571 -469 -851 -638 -1236 -585 -1334 20 -38
190 -80 324 -80 30 0 67 -3 84 -6 l31 -6 -139 -272 c-210 -411 -296 -614 -307
-731 -5 -58 -4 -63 22 -83 34 -27 108 -49 190 -57 33 -3 74 -8 92 -11 l31 -5
-113 -232 c-203 -418 -259 -593 -206 -646 25 -25 100 -48 209 -62 87 -12 466
-17 800 -11 101 2 185 2 187 0 1 -2 -22 -208 -52 -458 -30 -255 -52 -484 -50
-520 5 -117 76 -230 174 -280 66 -34 187 -36 253 -3 94 46 170 155 185 261 4
31 -14 211 -50 514 -30 257 -55 468 -55 471 0 2 165 7 368 10 202 3 412 11
467 17 123 13 252 44 285 69 38 28 38 89 0 203 -31 92 -167 378 -274 575 l-55
102 57 6 c103 11 206 35 252 58 43 21 45 24 48 69 6 100 -128 405 -367 837
-56 101 -101 185 -99 186 2 1 61 7 131 14 156 14 255 35 299 65 27 18 34 29
36 64 8 107 -117 388 -390 877 -52 94 -189 357 -305 585 -429 849 -625 1155
-719 1120z"/>
<path d="M10476 5856 c-59 -63 -160 -235 -298 -511 -66 -132 -169 -328 -228
-435 -286 -522 -410 -794 -410 -903 0 -42 61 -65 209 -79 l118 -11 -117 -231
c-180 -356 -237 -519 -194 -557 28 -24 76 -37 160 -45 41 -4 73 -10 72 -13 -2
-3 -31 -60 -64 -126 -126 -249 -194 -433 -180 -489 15 -60 181 -81 589 -73
l287 5 0 -26 c0 -15 -16 -160 -36 -322 -19 -162 -35 -321 -35 -352 0 -208 231
-316 373 -174 45 44 70 108 70 175 -1 31 -17 190 -36 354 -20 164 -36 307 -36
316 0 17 22 19 308 24 315 6 426 18 492 52 32 17 33 17 27 74 -6 71 -78 242
-181 431 l-74 135 27 7 c14 3 56 11 92 16 36 5 83 18 104 28 l37 17 -4 56 c-6
77 -72 228 -216 496 -78 144 -115 223 -108 227 6 4 34 8 61 8 73 0 174 18 222
40 40 17 43 22 43 57 0 79 -67 235 -217 511 -53 97 -181 341 -283 542 -180
351 -308 584 -373 680 -49 71 -118 140 -140 140 -11 0 -39 -20 -61 -44z"/>
</g>
</svg>
