<?xml version="1.0" standalone="no"?>
<!DOCTYPE svg PUBLIC "-//W3C//DTD SVG 20010904//EN"
 "http://www.w3.org/TR/2001/REC-SVG-20010904/DTD/svg10.dtd">
<svg version="1.0" xmlns="http://www.w3.org/2000/svg"
 width="989.000000pt" height="1280.000000pt" viewBox="0 0 989.000000 1280.000000"
 preserveAspectRatio="xMidYMid meet">
<metadata>
Created by potrace 1.15, written by Peter Selinger 2001-2017
</metadata>
<g transform="translate(0.000000,1280.000000) scale(0.100000,-0.100000)"
fill="#000000" stroke="none">
<path d="M5325 11980 c-83 -12 -145 -57 -145 -104 0 -17 -287 -1296 -292
-1301 -2 -2 -39 5 -83 16 -135 33 -255 49 -361 49 -128 0 -195 -19 -246 -70
-36 -36 -38 -41 -38 -101 0 -50 6 -78 28 -124 34 -71 130 -201 201 -270 l51
-49 -121 -42 c-670 -233 -1186 -815 -1374 -1549 -59 -228 -70 -329 -70 -620 0
-284 10 -374 65 -596 41 -164 92 -304 165 -456 l64 -133 -27 -19 c-44 -31
-230 -243 -324 -369 -108 -144 -225 -340 -304 -506 -32 -69 -62 -125 -65 -123
-4 1 -164 186 -356 410 l-350 409 3 136 c4 150 23 1276 26 1517 l1 150 -143 5
c-91 3 -144 1 -145 -5 -2 -5 -8 -336 -15 -735 -6 -398 -12 -726 -14 -727 -2
-2 -145 162 -318 364 -174 203 -327 378 -341 391 -27 25 -90 39 -131 28 -39
-10 -85 -54 -97 -96 -23 -77 -18 -86 277 -430 152 -177 274 -323 272 -325 -4
-4 -231 -71 -711 -209 -142 -41 -260 -76 -263 -79 -5 -5 66 -257 75 -269 6 -6
126 27 850 236 213 62 267 74 276 64 18 -19 968 -1131 982 -1149 9 -12 6 -38
-18 -129 -75 -286 -104 -560 -96 -899 12 -496 113 -913 326 -1341 376 -754
1017 -1290 1777 -1485 385 -99 794 -106 1184 -19 480 107 923 355 1291 723
401 402 684 923 814 1499 46 205 66 375 72 613 9 334 -15 570 -88 872 l-31
128 79 92 c267 314 918 1075 932 1090 16 16 45 9 571 -142 305 -88 558 -157
561 -153 8 11 81 264 76 268 -4 5 -152 48 -621 183 -192 56 -351 103 -354 106
-2 2 116 144 263 316 147 171 274 323 281 338 31 58 6 138 -56 179 -47 32
-127 27 -166 -9 -15 -13 -169 -190 -343 -393 l-316 -369 -7 294 c-5 162 -11
494 -15 738 l-8 443 -140 -1 c-77 -1 -143 -5 -146 -9 -3 -4 -2 -169 2 -367 4
-198 10 -571 13 -830 4 -258 9 -499 12 -535 l5 -65 -351 -410 c-194 -225 -359
-418 -369 -428 -16 -16 -19 -12 -54 70 -123 291 -361 642 -594 878 l-89 90 57
120 c107 223 177 450 216 696 22 143 25 567 5 699 -40 258 -118 526 -201 689
l-21 40 48 6 c187 23 246 67 245 183 -1 110 -114 277 -314 464 -60 57 -109
107 -109 111 0 4 163 243 362 530 200 287 371 539 381 559 17 35 18 41 3 91
-84 290 -767 781 -1435 1031 -257 96 -506 146 -636 126z"/>
</g>
</svg>
