<?xml version="1.0" encoding="UTF-8" standalone="no"?>
<!-- Created with Inkscape (http://www.inkscape.org/) -->

<svg
   xmlns:dc="http://purl.org/dc/elements/1.1/"
   xmlns:cc="http://creativecommons.org/ns#"
   xmlns:rdf="http://www.w3.org/1999/02/22-rdf-syntax-ns#"
   xmlns:svg="http://www.w3.org/2000/svg"
   xmlns="http://www.w3.org/2000/svg"
   xmlns:sodipodi="http://sodipodi.sourceforge.net/DTD/sodipodi-0.dtd"
   xmlns:inkscape="http://www.inkscape.org/namespaces/inkscape"
   width="210mm"
   height="297mm"
   viewBox="0 0 210 297"
   version="1.1"
   id="svg8"
   inkscape:version="0.92.2 (5c3e80d, 2017-08-06)"
   sodipodi:docname="griffon.svg">
  <defs
     id="defs2" />
  <sodipodi:namedview
     id="base"
     pagecolor="#ffffff"
     bordercolor="#666666"
     borderopacity="1.0"
     inkscape:pageopacity="0.0"
     inkscape:pageshadow="2"
     inkscape:zoom="0.35"
     inkscape:cx="-64.285714"
     inkscape:cy="560"
     inkscape:document-units="mm"
     inkscape:current-layer="layer1"
     showgrid="false"
     inkscape:window-width="1842"
     inkscape:window-height="1057"
     inkscape:window-x="-8"
     inkscape:window-y="-8"
     inkscape:window-maximized="1" />
  <metadata
     id="metadata5">
    <rdf:RDF>
      <cc:Work
         rdf:about="">
        <dc:format>image/svg+xml</dc:format>
        <dc:type
           rdf:resource="http://purl.org/dc/dcmitype/StillImage" />
        <dc:title></dc:title>
      </cc:Work>
    </rdf:RDF>
  </metadata>
  <g
     inkscape:label="Calque 1"
     inkscape:groupmode="layer"
     id="layer1">
    <path
       style="fill:#000000;stroke-width:0.26458332"
       d="m 47.132662,180.97687 c -2.49318,-0.10894 -3.444,-0.2455 -3.61236,-0.51882 -0.50211,-0.81516 -0.58272,-5.44436 -0.15942,-9.15403 0.65326,-5.72483 1.44312,-11.01382 1.94089,-12.99637 l 0.45225,-1.80121 1.72037,-0.671 c 5.24228,-2.04466 8.5253,-5.10806 9.38505,-8.75721 0.95514,-4.05404 1.82588,-11.94302 1.84266,-16.69462 0.009,-2.56987 -0.0748,-4.76465 -0.18648,-4.87728 -0.11163,-0.11263 -0.94507,0.16047 -1.85208,0.6069 -9.12559,4.49165 -18.92797,3.29631 -26.0048,-3.1711 -9.31721,-8.51486 -9.95641,-22.724 -1.45192,-32.275582 2.49035,-2.79697 7.147,-5.50837 11.25553,-6.55371 3.91831,-0.99693 9.09817,-0.61803 13.36146,0.9774 2.14384,0.80228 4.91871,2.43758 5.91565,3.48624 l 0.75628,0.79552 -1.42809,0.9482 c -3.77058,2.50352 -8.36923,2.8624 -12.12519,0.94625 -1.34341,-0.68536 -2.84433,-2.43191 -3.05502,-3.55498 -0.1497,-0.79797 -0.28333,-0.94135 -0.87485,-0.93868 -1.09832,0.005 -3.32741,0.67106 -5.23888,1.56555 -5.12885,2.40008 -8.72491,6.49352 -10.5923,12.057352 -0.63122,1.88071 -0.71042,2.51483 -0.71042,5.68854 0,3.20196 0.0768,3.80478 0.74178,5.82083 0.40798,1.23693 1.22267,3.0824 1.81043,4.10104 1.27405,2.20805 4.71797,5.69914 6.88155,6.97581 5.37503,3.17166 12.52493,3.5372 18.17942,0.92942 2.46061,-1.1348 3.98855,-2.59515 6.226,-5.95059 8.3155,-12.47052 26.67605,-22.422172 47.824438,-25.921472 2.00371,-0.33154 3.55052,-0.69538 3.43737,-0.80853 -0.19097,-0.19097 -3.22442,-0.75172 -6.2603,-1.15725 l -1.29651,-0.17318 2.60611,-2.42523 c 5.6675,-5.27413 5.56014,-5.15994 5.19439,-5.52511 -0.20156,-0.20124 -0.89278,-0.32272 -1.69585,-0.29805 -1.75993,0.0541 -5.6834,1.99518 -9.24274,4.57276 l -2.556078,1.85106 -2.14027,-0.96254 c -1.17714,-0.52939 -2.14026,-1.04146 -2.14026,-1.13793 0,-0.0965 0.50602,-0.57946 1.12448,-1.07331 1.88635,-1.50629 6.813018,-6.09297 6.813018,-6.34285 0,-0.12919 -0.45574,-0.37143 -1.01275,-0.53831 -2.285458,-0.68475 -6.608238,1.06991 -11.373568,4.61663 l -1.40611,1.04654 -2.09962,-1.02368 c -1.15479,-0.56302 -2.09962,-1.09777 -2.09962,-1.18833 0,-0.0906 0.98227,-1.01152 2.18282,-2.04658 1.20054,-1.03507 2.94819,-2.65841 3.88366,-3.60744 l 1.70085,-1.7255 -0.77481,-0.29702 c -1.69423,-0.6495 -4.63318,0.36227 -8.40424,2.89325 -1.43129,0.96063 -2.8787,1.91957 -3.21645,2.13099 -0.57818,0.3619 -0.75543,0.2908 -3.0296,-1.21528 l -2.4155,-1.59968 3.9783,-2.83685 c 2.18807,-1.56027 3.97831,-2.93371 3.97831,-3.0521 0,-0.49577 -1.66244,-0.87504 -3.26995,-0.746 -1.8106,0.14534 -5.17752,1.55186 -7.43837,3.10737 l -1.22391,0.84207 -1.77295,-1.3687 c -0.97512,-0.75278 -1.7331,-1.44713 -1.6844,-1.543 0.0487,-0.0959 1.0012,-0.93268 2.11667,-1.85957 3.99099,-3.31633 3.91116,-3.22954 3.3488,-3.64075 -1.14363,-0.83624 -4.85087,0.0395 -7.71653,1.82278 -0.55687,0.34654 -1.14534,0.70814 -1.30773,0.80357 -0.23274,0.13676 -2.63559,-1.54255 -3.89615,-2.72297 -0.12246,-0.11467 1.15612,-1.03536 2.84127,-2.04598 l 3.06391,-1.83749 -0.65642,-0.61667 c -1.02336,-0.9614 -2.95844,-1.01078 -5.5588,-0.14187 -1.16223,0.38836 -2.39233,0.88716 -2.73356,1.10844 -0.68324,0.44309 -0.50106,0.54972 -3.02404,-1.77001 l -1.0187,-0.93664 2.53001,-1.39753 c 1.39151,-0.76865 2.53002,-1.50496 2.53002,-1.63626 0,-0.96695 -3.79821,-1.35817 -6.65586,-0.68556 l -1.49649,0.35222 -1.4817,-1.99858 c -1.03596,-1.39735 -1.38171,-2.05141 -1.14934,-2.17419 0.18279,-0.0966 1.13749,-0.32385 2.12157,-0.50502 0.98407,-0.18118 1.8484,-0.42518 1.92075,-0.54224 0.24008,-0.38847 -1.1986,-1.27014 -2.54311,-1.55848 -0.72886,-0.15631 -2.07639,-0.28421 -2.99451,-0.28421 h -1.66931 l -0.9635,-1.45114 c -0.52993,-0.79812 -0.9635,-1.55144 -0.9635,-1.67403 0,-0.12259 0.7739,-0.20239 1.71979,-0.17732 1.32023,0.035 1.71979,-0.0406 1.71979,-0.32522 0,-0.53542 -1.98668,-1.31825 -3.8807,-1.52914 -1.61749,-0.1801 -1.64006,-0.1942 -2.5824,-1.61346 l -0.95064,-1.43177 h 1.7225 c 0.94737,0 1.72249,-0.10848 1.72249,-0.24106 0,-0.53735 -1.73945,-1.65105 -3.22287,-2.06347 -1.84431,-0.51277 -1.82462,-0.48333 -4.12215,-6.16214 -2.46343,-6.08887 -2.48495,-6.15085 -2.22622,-6.40958 0.15149,-0.1515 0.93913,0.22867 2.05145,0.9902 4.03054,2.75942 18.63562,9.32265 33.58125,15.09076 5.56597,2.14812 18.76279,7.64237 25.4,10.57482 4.89772,2.1639 12.205368,5.9412 14.552078,7.52191 7.10995,4.78919 11.40828,12.3933 12.28279,21.72931 0.15571,1.6623 0.28351,3.88557 0.28401,4.9406 7.9e-4,1.48156 0.0865,1.91823 0.37716,1.91823 0.54831,0 2.22304,-2.05944 2.56783,-3.15771 0.16289,-0.51883 0.3857,-3.62224 0.49515,-6.89646 0.1786,-5.34311 0.29774,-6.43805 1.16272,-10.68547 0.77233,-3.79248 2.06967,-8.7625 3.78042,-14.4825 0.0971,-0.32466 -0.119,-0.47585 -0.8857,-0.61969 -0.55778,-0.10464 -1.46531,-0.4593 -2.01674,-0.78813 l -1.0026,-0.59788 1.53164,-0.56059 c 1.68971,-0.61843 4.57436,-2.32942 4.57436,-2.71321 0,-0.1343 -0.20836,-0.24463 -0.46302,-0.24518 -0.66792,-0.001 -2.23826,-1.01816 -2.04801,-1.326 0.0885,-0.14328 0.3857,-0.26051 0.66032,-0.26051 1.33251,0 6.12433,-3.05684 9.04657,-5.77105 l 1.24274,-1.15428 6.95934,-0.74718 c 9.16259,-0.98372 11.61353,-1.16253 12.82872,-0.93596 0.8186,0.15263 1.44154,0.63976 3.29005,2.57281 l 2.28027,2.38453 3.67286,0.22569 c 2.02007,0.12413 4.05934,0.34187 4.5317,0.48387 2.26222,0.68008 3.45466,2.50365 3.69173,5.64572 0.14589,1.93343 -0.26638,4.82435 -0.72873,5.1101 -0.13399,0.0828 -0.57246,-0.15862 -0.97439,-0.53649 -0.97876,-0.92018 -4.06572,-2.41345 -6.01189,-2.90816 -0.86732,-0.22047 -2.51123,-0.40085 -3.65315,-0.40085 -2.02385,0 -4.4272,0.41616 -4.4272,0.7666 0,0.096 0.80367,0.30395 1.78594,0.46202 0.98226,0.15807 2.79797,0.68788 4.03489,1.17736 l 2.24896,0.88995 -2.62754,0.19288 c -4.55121,0.3341 -7.45325,1.57266 -9.00454,3.84304 -0.88056,1.28874 -1.72937,4.02634 -1.72937,5.57758 0,1.67151 0.87398,4.63121 2.43565,8.2482 4.10384,9.50492 5.20511,12.44989 6.4773,17.32129 0.55855,2.13882 0.69168,3.23736 0.67549,5.5742 -0.0387,5.58368 -1.80404,10.411462 -7.61383,20.821732 -2.46332,4.41389 -2.57969,5.0507 -2.21367,12.11369 0.36144,6.97453 1.65656,21.61923 1.9367,21.89937 0.0597,0.0597 0.38675,-0.0691 0.7268,-0.2863 0.92413,-0.59016 4.10614,-1.49953 5.24703,-1.49953 0.55928,0 1.25351,0.20436 1.57291,0.46302 0.75262,0.60948 1.15149,2.47513 0.93336,4.36562 l -0.17553,1.52136 h 3.44666 c 2.78055,0 3.52701,0.0804 3.86243,0.41577 0.50573,0.50572 0.53232,1.17579 0.0717,1.80578 -0.32474,0.44411 -1.41759,0.4687 -19.40548,0.43661 -17.06203,-0.0304 -19.09769,0.01 -19.40769,0.38329 -0.48865,0.58879 -0.60737,3.93714 -0.20643,5.82209 l 0.33768,1.5875 19.25564,0.0679 19.25564,0.0679 0.26441,0.69544 c 0.19755,0.51959 0.16762,0.84316 -0.11837,1.27963 -0.35528,0.54222 -0.64838,0.59554 -4.0807,0.74234 -2.03385,0.087 -10.88375,0.16812 -19.66644,0.18031 -13.79031,0.0191 -16.04552,-0.032 -16.53308,-0.37464 -0.68142,-0.47894 -1.5903,-3.6303 -1.84534,-6.39833 -0.13971,-1.51639 -0.0652,-2.24539 0.37921,-3.70842 0.97475,-3.20915 0.27081,-3.00312 10.2611,-3.00312 h 8.60667 l -0.51325,-0.72761 c -2.5966,-3.68103 -4.66343,-11.74316 -5.74431,-22.40691 -0.23508,-2.31924 -0.6046,-4.64096 -0.82115,-5.15937 -0.58599,-1.40284 -1.64523,-2.36441 -3.07096,-2.78781 -1.09307,-0.3246 -1.56436,-0.32609 -3.35887,-0.0106 -3.5234,0.61948 -15.65864,3.70322 -26.61187,6.76248 -2.18281,0.60966 -4.74265,1.31905 -5.68854,1.57642 -0.94588,0.25736 -4.508758,1.25544 -7.917488,2.21795 -3.40874,0.9625 -6.3428,1.75001 -6.52013,1.75001 -0.37914,0 -0.64363,-0.59293 -0.64363,-1.44292 0,-1.25597 -1.3531,-5.90531 -2.24891,-7.72738 -1.27824,-2.59993 -5.67999,-8.23785 -5.68629,-7.28321 -0.001,0.19115 0.5346,1.60443 1.19081,3.14063 1.8672,4.37117 2.95029,9.47214 2.7288,12.85169 -0.10046,1.53281 -0.24299,1.85197 -1.97842,4.42994 -3.11469,4.62685 -6.39952,8.67733 -9.88098,12.18412 -5.15384,5.19131 -9.6746,8.23866 -14.53074,9.79486 -2.64533,0.84772 -2.63214,0.83215 -4.35921,5.14415 -1.28334,3.2041 -1.83506,5.51867 -1.70206,7.14041 0.0967,1.17872 0.0577,1.16764 2.54589,0.72269 3.85062,-0.68858 5.43917,1.00918 4.94314,5.28298 -0.13677,1.17846 -0.35696,1.78977 -0.80659,2.23941 -0.59209,0.59208 -0.7685,0.6163 -4.13622,0.56788 -1.93477,-0.0278 -5.04049,-0.11712 -6.90161,-0.19844 z M 139.434,180.87453 c -0.51357,-0.37554 -0.64935,-1.63616 -0.22223,-2.06328 0.1635,-0.1635 7.11369,-0.25096 18.93805,-0.23833 l 18.67976,0.0199 0.31338,-0.58558 c 0.38004,-0.71011 0.64523,-4.81896 0.39656,-6.14446 l -0.17928,-0.95569 H 158.46062 139.561 l -0.44051,-0.67229 c -0.35321,-0.53908 -0.38161,-0.80156 -0.14329,-1.32461 l 0.29721,-0.6523 19.7825,0.0678 19.78251,0.0678 0.66146,1.32292 c 0.95714,1.91426 1.06117,5.37511 0.25915,8.62096 -0.39549,1.60057 -0.74319,2.45808 -1.06697,2.63136 -0.29813,0.15955 -7.74347,0.25705 -19.62942,0.25705 -15.50143,0 -19.24065,-0.0669 -19.62964,-0.35136 z m 2.0198,-5.52239 c -0.43121,-0.43121 -0.39888,-0.88624 0.0983,-1.38339 0.3693,-0.3693 2.30451,-0.41578 17.31131,-0.41578 15.0068,0 16.94202,0.0465 17.31131,0.41578 0.49716,0.49715 0.52948,0.95218 0.0983,1.38339 -0.45894,0.45894 -34.36022,0.45894 -34.81916,0 z m -7.62277,-15.14138 c -0.0797,-0.2077 -0.10573,-0.65418 -0.0578,-0.99219 l 0.0871,-0.61455 17.65062,-0.068 c 17.43575,-0.0672 17.65409,-0.0616 17.93483,0.46302 0.20207,0.37757 0.20236,0.68396 10e-4,1.0602 -0.27884,0.52103 -0.55399,0.52917 -17.87699,0.52917 -14.99641,0 -17.61518,-0.0557 -17.73869,-0.37763 z m 1.15629,-125.853162 c -1.34749,-1.44995 -2.48967,-2.75197 -2.53817,-2.89336 -0.10636,-0.31005 0.20089,-0.30065 3.26319,0.0998 l 2.38125,0.31138 -0.0814,0.84429 c -0.0752,0.77914 0.0248,0.89812 1.29512,1.54185 l 1.37656,0.69755 0.95383,-1.0903 0.95384,-1.09031 1.4218,0.54861 c 0.78199,0.30173 1.44249,0.51373 1.46778,0.4711 0.24788,-0.41782 0.68229,-1.63084 0.68229,-1.90517 0,-0.19116 -0.71033,-0.72617 -1.57851,-1.1889 -0.86818,-0.46274 -1.6379,-0.93744 -1.71049,-1.05488 -0.14253,-0.23063 3.22072,-4.7921 3.5333,-4.7921 0.36739,0 4.25362,3.51468 4.25362,3.84695 0,0.18541 -0.59531,0.83554 -1.32292,1.44472 -0.7276,0.60919 -1.32291,1.2313 -1.32291,1.38247 0,0.15117 0.24742,0.6752 0.54982,1.16449 l 0.54982,0.88963 1.15149,-0.79225 c 1.40419,-0.96611 1.56435,-0.97196 2.7089,-0.099 0.99977,0.76256 1.25515,0.71193 2.82897,-0.56086 0.7026,-0.56822 0.74738,-0.695 0.46462,-1.31559 -0.2449,-0.5375 -0.24138,-0.71196 0.0162,-0.80268 0.18102,-0.0637 1.32807,-0.47962 2.54902,-0.92414 1.22094,-0.44452 2.27442,-0.75369 2.34107,-0.68703 0.0667,0.0667 -0.69417,1.54503 -1.69072,3.28528 l -1.81192,3.1641 -1.98437,0.17779 c -2.42276,0.21707 -16.20266,1.67746 -17.39377,1.84339 -0.79807,0.11117 -1.02662,-0.0628 -3.30729,-2.51685 z"
       id="path4533"
       inkscape:connector-curvature="0" />
  </g>
</svg>
