<?xml version="1.0" encoding="iso-8859-1"?>
<!-- Generator: Adobe Illustrator 16.0.0, SVG Export Plug-In . SVG Version: 6.00 Build 0)  -->
<!DOCTYPE svg PUBLIC "-//W3C//DTD SVG 1.1//EN" "http://www.w3.org/Graphics/SVG/1.1/DTD/svg11.dtd">
<svg version="1.1" id="Capa_1" xmlns="http://www.w3.org/2000/svg" xmlns:xlink="http://www.w3.org/1999/xlink" x="0px" y="0px"
	 width="366.595px" height="366.595px" viewBox="0 0 366.595 366.595" style="enable-background:new 0 0 366.595 366.595;"
	 xml:space="preserve">
<g>
	<g>
		<path d="M360.886,206.213c-13.299-30.199-34.386-34.291-35.275-34.452c-1.254-0.219-2.46-0.837-3.36-1.732
			c-1.011-0.999-25.417-24.631-61.428-17.689c-27.669,5.322-43.525,33.67-43.684,33.95c-0.548,0.986-1.352,1.821-2.32,2.387
			c-27.766,16.283-55.771,24.54-82.033,24.546c-16.331,0-31.98-3.19-46.491-9.627c-29.35-13.024-51.286-38.873-57.247-67.462
			c-4.29-20.603,1.248-40.797,10.047-58.2C19.205,106.141,2.767,149.98,0,218.362v52.726c0,0,35.152,61.519,182.364,68.113
			c147.218,6.589,180.185-51.642,180.185-51.642s8.89-40.286,0.316-78.977C362.048,207.961,361.331,207.212,360.886,206.213z"/>
		<path d="M174.88,140.341c26.981-3.206,55.545,2.743,66.859,5.538c5.065-2.552,10.619-4.616,16.727-5.794
			c37.953-7.353,64.904,14.154,71.219,19.829c2.515,0.661,7.118,2.195,12.61,5.438c-1.254-1.416-2.558-2.795-3.921-4.128
			C295.531,119.477,205.448,20.598,120.857,27.189c0,0-15.165,0.189-34.748,9.685c-10.388,9.788-53.786,53.739-44.832,96.708
			c5.148,24.73,24.347,47.182,50.092,58.602c33.691,14.943,74.738,10.169,115.752-13.445c0.183-0.301,0.42-0.679,0.651-1.053
			c-32.556,6.277-49.709-0.737-72.437-12.62C111.164,152.437,141.932,144.269,174.88,140.341z"/>
	</g>
</g>
<g>
</g>
<g>
</g>
<g>
</g>
<g>
</g>
<g>
</g>
<g>
</g>
<g>
</g>
<g>
</g>
<g>
</g>
<g>
</g>
<g>
</g>
<g>
</g>
<g>
</g>
<g>
</g>
<g>
</g>
</svg>
