<?xml version="1.0" encoding="utf-8"?>
<!-- Svg Vector Icons : http://www.onlinewebfonts.com/icon -->
<!DOCTYPE svg PUBLIC "-//W3C//DTD SVG 1.1//EN" "http://www.w3.org/Graphics/SVG/1.1/DTD/svg11.dtd">
<svg version="1.1" xmlns="http://www.w3.org/2000/svg" xmlns:xlink="http://www.w3.org/1999/xlink" x="0px" y="0px" viewBox="0 0 1000 1000" enable-background="new 0 0 1000 1000" xml:space="preserve">
<metadata> Svg Vector Icons : http://www.onlinewebfonts.com/icon </metadata>
<g><g transform="translate(0.000000,512.000000) scale(0.100000,-0.100000)"><path d="M1080,4038.1l-980-980l3920-3920L7938.1-4780l981.9,981.9l980,980l-210.5,210.5L9478.9-2397l-631.6-631.6l-631.6-631.6l-137.8,139.7l-139.7,137.8l631.6,631.6l631.6,631.6l-139.7,137.8l-137.8,139.7l-273.7-273.7c-149.3-149.3-281.4-271.8-290.9-271.8c-11.5,0-80.4,61.3-153.1,134l-134,134l283.3,283.3l281.4,281.4l-137.8,139.7l-139.7,137.8l-281.4-281.4l-283.3-283.3l-137.8,139.7L7517-1564.4l283.3,283.3l281.4,281.4L7943.8-860l-139.7,137.8l-281.4-281.4l-283.3-283.3l-134,134c-72.7,72.7-134,141.7-134,153.1c0,9.6,122.5,141.7,271.8,290.9L7517-435.1l-139.7,137.8l-137.8,139.7l-631.6-631.6l-631.6-631.6l-137.8,139.7l-139.7,137.8l631.6,631.6L6961.9,120l-139.7,137.8l-137.8,139.7l-273.7-273.7C6261.4-25.5,6129.3-148,6119.7-148c-11.5,0-80.4,61.3-153.1,134l-134,134l283.3,283.3l281.4,281.4l-137.8,139.7l-139.7,137.8l-281.4-281.4l-283.3-283.3l-137.8,139.7l-139.7,137.8l283.3,283.3l281.4,281.4l-137.8,139.7l-139.7,137.8l-281.4-281.4L5000,952.6l-134,134c-72.7,72.7-134,141.6-134,153.1c0,9.6,122.5,141.6,271.8,290.9l273.7,273.7l-139.7,137.8L5000,2081.9l-631.6-631.6l-631.6-631.6l-137.8,139.7l-139.7,137.8l631.6,631.6l631.6,631.6l-139.7,137.8L4444.9,2637l-273.7-273.7c-149.3-149.3-281.4-271.8-290.9-271.8c-11.5,0-80.4,61.3-153.1,134l-134,134l283.3,283.3l281.4,281.4L4020,3063.8l-139.7,137.8l-281.4-281.4L3315.6,2637l-137.8,139.7l-139.7,137.8l283.3,283.3l281.4,281.4l-137.8,139.7l-139.7,137.8l-281.4-281.4l-283.3-283.3l-134,134c-72.7,72.7-134,141.6-134,153.1c0,9.6,122.5,141.6,271.8,290.9l273.7,273.7l-139.7,137.8l-137.8,139.7l-631.6-631.6l-631.6-631.6l-137.8,139.7l-139.7,137.8l631.6,631.6l631.6,631.6l-210.5,210.5L2061.9,5020L1080,4038.1z"/></g></g>
</svg>