<?xml version="1.0" encoding="UTF-8" standalone="no"?>
<!-- Created with Inkscape (http://www.inkscape.org/) -->

<svg
   xmlns:dc="http://purl.org/dc/elements/1.1/"
   xmlns:cc="http://creativecommons.org/ns#"
   xmlns:rdf="http://www.w3.org/1999/02/22-rdf-syntax-ns#"
   xmlns:svg="http://www.w3.org/2000/svg"
   xmlns="http://www.w3.org/2000/svg"
   xmlns:sodipodi="http://sodipodi.sourceforge.net/DTD/sodipodi-0.dtd"
   xmlns:inkscape="http://www.inkscape.org/namespaces/inkscape"
   width="9.2300005mm"
   height="10.001915mm"
   viewBox="0 0 32.704726 35.439856"
   id="svg4156"
   version="1.1"
   inkscape:version="0.91 r13725"
   sodipodi:docname="G.svg">
  <defs
     id="defs4158" />
  <sodipodi:namedview
     id="base"
     pagecolor="#ffffff"
     bordercolor="#666666"
     borderopacity="1.0"
     inkscape:pageopacity="0.0"
     inkscape:pageshadow="2"
     inkscape:zoom="1.4"
     inkscape:cx="-179.44505"
     inkscape:cy="-113.24977"
     inkscape:document-units="px"
     inkscape:current-layer="layer1"
     showgrid="false"
     inkscape:window-width="1858"
     inkscape:window-height="1057"
     inkscape:window-x="-8"
     inkscape:window-y="-8"
     inkscape:window-maximized="1"
     fit-margin-top="0"
     fit-margin-left="0"
     fit-margin-right="0"
     fit-margin-bottom="0" />
  <metadata
     id="metadata4161">
    <rdf:RDF>
      <cc:Work
         rdf:about="">
        <dc:format>image/svg+xml</dc:format>
        <dc:type
           rdf:resource="http://purl.org/dc/dcmitype/StillImage" />
        <dc:title></dc:title>
      </cc:Work>
    </rdf:RDF>
  </metadata>
  <g
     inkscape:label="Calque 1"
     inkscape:groupmode="layer"
     id="layer1"
     transform="translate(-153.54858,-94.611587)">
    <g
       style="font-style:normal;font-variant:normal;font-weight:normal;font-stretch:normal;font-size:40px;line-height:125%;font-family:'Arial Rounded MT Bold';-inkscape-font-specification:'Arial Rounded MT Bold, ';letter-spacing:0px;word-spacing:0px;fill:#000000;fill-opacity:1;stroke:none;stroke-width:1px;stroke-linecap:butt;stroke-linejoin:miter;stroke-opacity:1"
       id="text4164"
       transform="matrix(1.1969134,0,0,1.1969134,-33.455768,-22.119578)">
      <path
         d="m 183.56305,115.00729 0,5.48828 q 0,1.09375 -0.21484,1.75782 -0.21485,0.64453 -0.80079,1.17187 -0.5664,0.52735 -1.46484,1.01563 -2.59766,1.40625 -5,2.05078 -2.40234,0.64453 -5.23437,0.64453 -3.30079,0 -6.01563,-1.01563 -2.71484,-1.01562 -4.62891,-2.94921 -1.91406,-1.9336 -2.94921,-4.6875 -1.01563,-2.75391 -1.01563,-6.15235 0,-3.33984 0.99609,-6.11328 0.9961,-2.77344 2.92969,-4.70703 1.9336,-1.933594 4.70703,-2.949219 2.77344,-1.035156 6.28907,-1.035156 2.89062,0 5.11718,0.78125 2.22657,0.761719 3.61328,1.933595 1.38672,1.17187 2.08985,2.48047 0.70312,1.30859 0.70312,2.32422 0,1.09375 -0.82031,1.875 -0.80078,0.76171 -1.93359,0.76171 -0.625,0 -1.21094,-0.29296 -0.56641,-0.29297 -0.95703,-0.82032 -1.07422,-1.67968 -1.81641,-2.53906 -0.74219,-0.85937 -2.01172,-1.44531 -1.25,-0.58594 -3.20312,-0.58594 -2.01172,0 -3.59375,0.70313 -1.58203,0.68359 -2.71485,2.01171 -1.11328,1.3086 -1.71875,3.22266 -0.58593,1.91406 -0.58593,4.23828 0,5.03906 2.30468,7.75391 2.32422,2.71484 6.46485,2.71484 2.01172,0 3.76953,-0.52734 1.77734,-0.52735 3.59375,-1.50391 l 0,-4.64844 -4.49219,0 q -1.62109,0 -2.46094,-0.48828 -0.82031,-0.48828 -0.82031,-1.66015 0,-0.95703 0.6836,-1.58203 0.70312,-0.625 1.89453,-0.625 l 6.58203,0 q 1.21094,0 2.05078,0.21484 0.83984,0.21484 1.34766,0.95703 0.52734,0.74219 0.52734,2.22656 z"
         id="path4169"
         inkscape:connector-curvature="0" />
    </g>
  </g>
</svg>
