<?xml version="1.0" encoding="UTF-8" standalone="no"?>
<!-- Created with Inkscape (http://www.inkscape.org/) -->

<svg
   xmlns:dc="http://purl.org/dc/elements/1.1/"
   xmlns:cc="http://creativecommons.org/ns#"
   xmlns:rdf="http://www.w3.org/1999/02/22-rdf-syntax-ns#"
   xmlns:svg="http://www.w3.org/2000/svg"
   xmlns="http://www.w3.org/2000/svg"
   xmlns:sodipodi="http://sodipodi.sourceforge.net/DTD/sodipodi-0.dtd"
   xmlns:inkscape="http://www.inkscape.org/namespaces/inkscape"
   width="8.2387791mm"
   height="9.99998mm"
   viewBox="0 0 29.192524 35.433"
   id="svg2"
   version="1.1"
   inkscape:version="0.91 r13725"
   sodipodi:docname="K.svg">
  <defs
     id="defs4" />
  <sodipodi:namedview
     id="base"
     pagecolor="#ffffff"
     bordercolor="#666666"
     borderopacity="1.0"
     inkscape:pageopacity="0.0"
     inkscape:pageshadow="2"
     inkscape:zoom="1.979899"
     inkscape:cx="12.798794"
     inkscape:cy="-56.598891"
     inkscape:document-units="px"
     inkscape:current-layer="text3349"
     showgrid="false"
     inkscape:window-width="1858"
     inkscape:window-height="1057"
     inkscape:window-x="-8"
     inkscape:window-y="-8"
     inkscape:window-maximized="1"
     fit-margin-top="0"
     fit-margin-left="0"
     fit-margin-right="0"
     fit-margin-bottom="0" />
  <metadata
     id="metadata7">
    <rdf:RDF>
      <cc:Work
         rdf:about="">
        <dc:format>image/svg+xml</dc:format>
        <dc:type
           rdf:resource="http://purl.org/dc/dcmitype/StillImage" />
        <dc:title></dc:title>
      </cc:Work>
    </rdf:RDF>
  </metadata>
  <g
     inkscape:label="Calque 1"
     inkscape:groupmode="layer"
     id="layer1"
     transform="translate(2.3989968,-1019.841)">
    <g
       style="font-style:normal;font-variant:normal;font-weight:normal;font-stretch:normal;font-size:40px;line-height:125%;font-family:'Arial Rounded MT Bold';-inkscape-font-specification:'Arial Rounded MT Bold, ';letter-spacing:0px;word-spacing:0px;fill:#000000;fill-opacity:1;stroke:none;stroke-width:1px;stroke-linecap:butt;stroke-linejoin:miter;stroke-opacity:1"
       id="text3349">
      <path
         d="m 4.5427003,1024.048 0,12.0136 13.6262947,-14.2106 q 0.981654,-1.0284 1.659463,-1.5192 0.701181,-0.4908 1.846444,-0.4908 1.495854,0 2.407391,0.8881 0.934908,0.8649 0.934908,2.1269 0,1.5193 -1.565972,3.0152 l -8.437551,7.9935 9.723051,13.9301 q 1.028399,1.449 1.5426,2.5476 0.514199,1.0751 0.514199,2.1035 0,1.1452 -0.911536,1.9867 -0.888163,0.8414 -2.430763,0.8414 -1.449108,0 -2.360644,-0.6076 -0.911537,-0.6312 -1.542599,-1.6595 -0.631064,-1.0284 -1.121891,-1.8698 l -8.203824,-12.6213 -5.6795707,5.4459 0,7.0818 q 0,2.1503 -0.9816541,3.2021 -0.9816542,1.0284 -2.5242535,1.0284 -0.88816328,0 -1.70620848,-0.4674 -0.81804512,-0.4675 -1.26212682,-1.2621 -0.327218,-0.6545 -0.3973362,-1.5193 -0.070118,-0.8648 -0.070118,-2.5009 l 0,-25.4763 q 0,-2.1035 0.911536,-3.1553 0.93490865,-1.0517 2.5242536,-1.0517 1.5659721,0 2.5242535,1.0517 0.9816541,1.0285 0.9816541,3.1553 z"
         id="k"
         inkscape:connector-curvature="0"
         inkscape:label="#path4154" />
    </g>
  </g>
</svg>
